<svg xmlns="http://www.w3.org/2000/svg" viewBox="0 0 24 24">
  <path d="M7 3h8l4 4v13a1 1 0 0 1-1 1H7a2 2 0 0 1-2-2V5a2 2 0 0 1 2-2Z" fill="none" stroke="#FFFFFF" stroke-width="2" stroke-linejoin="round"/>
  <path d="M15 3v4h4" fill="none" stroke="#FFFFFF" stroke-width="2" stroke-linejoin="round"/>
  <path d="M9 11h6M9 15h6" stroke="#FFFFFF" stroke-width="2" stroke-linecap="round"/>
  <path d="M10.5 18c.5.6 2.5.9 3.3 0 .7-.8 0-1.8-1.7-1.8s-2.4-1-1.7-1.8c.8-.9 2.8-.6 3.3 0" fill="none" stroke="#FFFFFF" stroke-width="1.6" stroke-linecap="round"/>
</svg>
